<svg width="23" height="18" viewBox="0 0 23 18" version="1.1" xmlns="http://www.w3.org/2000/svg" xmlns:xlink="http://www.w3.org/1999/xlink">
<title>Vector</title>
<desc>Created using Figma</desc>
<g id="Canvas" transform="translate(-28468 9152)">
<g id="Vector">
<use xlink:href="#path0_fill" transform="translate(28468 -9152)" fill="#4F4F4F"/>
</g>
</g>
<defs>
<path id="path0_fill" d="M 1.28783 0.0640416L 1.02306 0.0189751C 0.911481 -0.00507893 0.796182 -0.00627639 0.684124 0.0154552C 0.572065 0.0371867 0.465572 0.0813968 0.371069 0.145417C 0.276567 0.209437 0.196015 0.291941 0.134275 0.387949C 0.0725345 0.483956 0.0308861 0.591477 0.0118427 0.704024C -0.00720068 0.81657 -0.0032442 0.931808 0.0234736 1.04278C 0.0501913 1.15376 0.0991162 1.25817 0.167296 1.34972C 0.235476 1.44126 0.321497 1.51805 0.420168 1.57544C 0.518838 1.63282 0.628114 1.66963 0.741398 1.68362L 1.00616 1.72869C 1.69737 1.84925 2.33393 2.18193 2.82754 2.68058C 3.32115 3.17924 3.64733 3.81914 3.76086 4.51154L 5.29875 13.9107C 5.46763 14.9655 6.00707 15.9256 6.82017 16.6184C 7.63327 17.3112 8.66675 17.6914 9.73499 17.6907L 20.7932 17.6907C 21.0173 17.6907 21.2322 17.6017 21.3907 17.4432C 21.5492 17.2847 21.6382 17.0698 21.6382 16.8457C 21.6382 16.6216 21.5492 16.4067 21.3907 16.2482C 21.2322 16.0897 21.0173 16.0007 20.7932 16.0007L 9.73499 16.0007C 9.10118 15.9999 8.48615 15.7854 7.98933 15.3919C 7.49252 14.9983 7.14297 14.4487 6.9972 13.8319L 15.8978 13.8319C 17.1518 13.8351 18.3741 13.4383 19.3872 12.6993C 20.4003 11.9602 21.1513 10.9174 21.5311 9.72236L 22.5395 6.57897C 22.5946 6.40871 22.6082 6.22778 22.5795 6.05117C 22.5507 5.87456 22.4802 5.70735 22.374 5.56337C 22.2677 5.4194 22.1287 5.30281 21.9684 5.22325C 21.8081 5.14369 21.6312 5.10345 21.4523 5.10586L 5.5607 5.10586L 5.41987 4.23833C 5.24958 3.19973 4.7603 2.23987 4.01989 1.49188C 3.27948 0.743902 2.32464 0.244881 1.28783 0.0640416ZM 20.6946 6.79867L 19.9228 9.20691C 19.6495 10.0595 19.1123 10.8032 18.3889 11.3307C 17.6655 11.8582 16.7932 12.1422 15.8978 12.1419L 6.7099 12.1419L 5.83673 6.79022L 20.6946 6.79867Z"/>
</defs>
</svg>
