<svg width="7" height="6" viewBox="0 0 7 6" version="1.1" xmlns="http://www.w3.org/2000/svg" xmlns:xlink="http://www.w3.org/1999/xlink">
<title>Vector</title>
<desc>Created using Figma</desc>
<g id="Canvas" transform="translate(-28483 9134)">
<g id="Vector">
<use xlink:href="#path0_fill" transform="translate(28483.6 -9133.48)" fill="#4F4F4F"/>
</g>
</g>
<defs>
<path id="path0_fill" d="M 5.47558 2.73779C 5.47558 2.19631 5.31501 1.66699 5.01418 1.21676C 4.71335 0.76653 4.28577 0.415621 3.7855 0.208404C 3.28523 0.00118731 2.73476 -0.0530321 2.20368 0.0526062C 1.6726 0.158244 1.18477 0.418994 0.801883 0.801881C 0.418996 1.18477 0.158246 1.6726 0.0526076 2.20368C -0.0530307 2.73475 0.00118662 3.28523 0.208404 3.7855C 0.415621 4.28577 0.766529 4.71335 1.21676 5.01418C 1.66698 5.31501 2.19631 5.47558 2.73779 5.47558C 3.46367 5.47484 4.15961 5.18615 4.67288 4.67288C 5.18615 4.15961 5.47484 3.46367 5.47558 2.73779ZM 1.69 2.73779C 1.69 2.53056 1.75145 2.32798 1.86658 2.15567C 1.98171 1.98336 2.14536 1.84906 2.33682 1.76975C 2.52828 1.69045 2.73895 1.6697 2.94221 1.71013C 3.14546 1.75056 3.33216 1.85035 3.4787 1.99689C 3.62523 2.14343 3.72503 2.33013 3.76546 2.53338C 3.80589 2.73663 3.78514 2.94731 3.70583 3.13877C 3.62653 3.33023 3.49223 3.49387 3.31992 3.609C 3.14761 3.72414 2.94503 3.78559 2.73779 3.78559C 2.4599 3.78559 2.19339 3.6752 1.99689 3.4787C 1.80039 3.2822 1.69 3.01568 1.69 2.73779Z"/>
</defs>
</svg>
